<svg xmlns="http://www.w3.org/2000/svg" version="1.1" xmlns:xlink="http://www.w3.org/1999/xlink" xmlns:svgjs="http://svgjs.dev/svgjs" width="20" height="22"><svg width="20" height="22" viewBox="0 0 20 22" fill="none" xmlns="http://www.w3.org/2000/svg">
<path d="M5.51769 15.3438L19.2462 15.3438C18.8083 19.563 15.5969 21.2543 14.1373 21.3452C12.6775 21.4362 1.04737 21.3452 0.0438336 21.3452C-0.229859 21.3452 0.68245 15.3438 5.51769 15.3438Z" fill="#DBDBDD"></path>
<path d="M9.42612 0.613281H0C0.407617 4.79777 3.3968 6.47516 4.75552 6.56535C6.11426 6.65552 13.5872 6.56535 14.5213 6.56535C14.7761 6.56535 13.9269 0.613281 9.42612 0.613281Z" fill="#04CD77"></path>
<path d="M13.7285 7.79688H0C0.437908 12.0161 3.64924 13.7074 5.10895 13.7983C6.56863 13.8893 18.1988 13.7984 19.2024 13.7984C19.476 13.7984 18.5637 7.79688 13.7285 7.79688Z" fill="#04CD77"></path>
</svg><style>@media (prefers-color-scheme: light) { :root { filter: none; } }
@media (prefers-color-scheme: dark) { :root { filter: none; } }
</style></svg>