<svg xmlns="http://www.w3.org/2000/svg" width="158" height="22" viewBox="0 0 158 22" fill="none">
    <g clip-path="url(#clip0_833_1345)">
        <path
            d="M5.51769 15.3445L19.2462 15.3445C18.8083 19.5637 15.5969 21.255 14.1373 21.346C12.6775 21.4369 1.04737 21.3459 0.0438336 21.3459C-0.229859 21.3459 0.68245 15.3445 5.51769 15.3445Z"
            fill="#B3B3B3" />
        <path
            d="M9.42612 0.61377H0C0.407617 4.79826 3.3968 6.47565 4.75552 6.56584C6.11426 6.65601 13.5872 6.56584 14.5213 6.56584C14.7761 6.56584 13.9269 0.61377 9.42612 0.61377Z"
            fill="#04CD77" />
        <path
            d="M13.7285 7.79712H0C0.437908 12.0163 3.64924 13.7077 5.10895 13.7986C6.56863 13.8895 18.1988 13.7986 19.2024 13.7986C19.476 13.7986 18.5637 7.79712 13.7285 7.79712Z"
            fill="#04CD77" />
        <path
            d="M152.005 21.3866C150.587 21.3866 149.292 21.1134 148.12 20.567C146.948 20.0206 146.022 19.2481 145.342 18.2495L147.44 16.4406C147.856 17.2132 148.451 17.8349 149.226 18.306C150.02 18.7582 150.965 18.9843 152.062 18.9843C152.931 18.9843 153.621 18.8335 154.132 18.5321C154.642 18.2306 154.897 17.8067 154.897 17.2603C154.897 16.9023 154.775 16.5914 154.529 16.3276C154.302 16.045 153.858 15.8283 153.196 15.6775L150.219 15.0558C148.706 14.7543 147.629 14.2739 146.986 13.6144C146.343 12.9361 146.022 12.0788 146.022 11.0425C146.022 10.27 146.249 9.554 146.703 8.89455C147.156 8.23509 147.818 7.70751 148.687 7.31185C149.576 6.89732 150.635 6.69006 151.863 6.69006C153.281 6.69006 154.491 6.94442 155.493 7.45316C156.495 7.94304 157.26 8.64959 157.79 9.57284L155.691 11.3251C155.332 10.5715 154.803 10.0156 154.103 9.65764C153.404 9.28078 152.676 9.09237 151.92 9.09237C151.315 9.09237 150.795 9.16774 150.36 9.31848C149.926 9.46923 149.595 9.67648 149.368 9.94027C149.141 10.204 149.028 10.5149 149.028 10.8729C149.028 11.2497 149.17 11.5795 149.453 11.8621C149.737 12.1447 150.247 12.3614 150.984 12.5121L154.217 13.1904C155.578 13.4542 156.533 13.9064 157.081 14.5471C157.648 15.1688 157.931 15.9319 157.931 16.8363C157.931 17.7407 157.695 18.5415 157.223 19.2386C156.75 19.9169 156.069 20.4445 155.181 20.8213C154.292 21.1982 153.234 21.3866 152.005 21.3866Z"
            fill="white" />
        <path
            d="M129.062 21.1039V0.613525H132.097V9.23361C132.569 8.34804 133.202 7.70742 133.996 7.31175C134.809 6.89725 135.707 6.68997 136.69 6.68997C137.692 6.68997 138.59 6.88781 139.384 7.28348C140.197 7.66031 140.84 8.23499 141.312 9.00752C141.785 9.78002 142.021 10.7598 142.021 11.9468V21.1039H138.987V12.9077C138.987 11.5135 138.694 10.5431 138.108 9.9967C137.541 9.45029 136.823 9.17707 135.953 9.17707C135.348 9.17707 134.743 9.32782 134.138 9.62928C133.552 9.9119 133.061 10.3829 132.664 11.0424C132.286 11.683 132.097 12.5497 132.097 13.6426V21.1039H129.062Z"
            fill="white" />
        <path
            d="M121.073 2.81799V16.8645C121.073 17.5616 121.252 18.0704 121.611 18.3907C121.99 18.711 122.491 18.8711 123.114 18.8711C123.625 18.8711 124.069 18.7958 124.447 18.645C124.825 18.4755 125.175 18.2494 125.496 17.9667L126.177 20.1712C125.742 20.5481 125.203 20.8495 124.56 21.0756C123.937 21.2829 123.237 21.3865 122.462 21.3865C121.649 21.3865 120.902 21.2546 120.222 20.9908C119.542 20.727 119.012 20.3031 118.634 19.719C118.256 19.1161 118.058 18.3341 118.039 17.3732V3.66586L121.073 2.81799ZM125.95 6.97259V9.34666H115.316V6.97259H125.95Z"
            fill="white" />
        <path
            d="M110.682 4.59851C110.021 4.59851 109.51 4.43836 109.151 4.11806C108.811 3.7789 108.641 3.30786 108.641 2.70493C108.641 2.10199 108.811 1.64037 109.151 1.32006C109.51 0.999753 110.021 0.8396 110.682 0.8396C111.325 0.8396 111.816 0.999753 112.157 1.32006C112.516 1.64037 112.695 2.10199 112.695 2.70493C112.695 3.30786 112.516 3.7789 112.157 4.11806C111.816 4.43836 111.325 4.59851 110.682 4.59851ZM112.185 6.97257V21.1039H109.151V6.97257H112.185Z"
            fill="white" />
        <path
            d="M82.2363 21.1038V6.97257H84.9302L85.0719 9.34663C85.5633 8.44222 86.2156 7.77333 87.0284 7.33996C87.8601 6.90663 88.7391 6.68994 89.6654 6.68994C90.6864 6.68994 91.622 6.92546 92.4728 7.3965C93.3422 7.8487 93.9945 8.53643 94.4294 9.45967C94.7318 8.83789 95.1475 8.31974 95.677 7.90524C96.2062 7.49071 96.7923 7.18925 97.435 7.00083C98.0777 6.79355 98.7109 6.68994 99.3347 6.68994C100.242 6.68994 101.093 6.87836 101.887 7.25519C102.681 7.63202 103.324 8.2067 103.815 8.9792C104.306 9.75173 104.552 10.7409 104.552 11.9468V21.1038H101.518V12.4273C101.518 11.2779 101.244 10.4489 100.696 9.94014C100.148 9.4314 99.4482 9.17705 98.5976 9.17705C97.9358 9.17705 97.3215 9.3372 96.7543 9.65752C96.2062 9.97782 95.7621 10.4583 95.4216 11.0989C95.0814 11.7207 94.9113 12.4932 94.9113 13.4164V21.1038H91.8771V12.4273C91.8771 11.2779 91.6031 10.4489 91.055 9.94014C90.5067 9.4314 89.8074 9.17705 88.9565 9.17705C88.3896 9.17705 87.8224 9.32776 87.2552 9.62925C86.6882 9.93071 86.2156 10.4018 85.8374 11.0424C85.4594 11.683 85.2704 12.5309 85.2704 13.586V21.1038H82.2363Z"
            fill="white" />
        <path
            d="M70.9592 2.16797C72.6417 2.16797 74.0972 2.48828 75.326 3.1289C76.5548 3.75067 77.5946 4.67391 78.4451 5.89861L76.4035 7.84874C75.6851 6.75592 74.8723 5.97399 73.9651 5.50295C73.0765 5.01307 72.0178 4.76812 70.789 4.76812C69.8819 4.76812 69.135 4.8906 68.5492 5.13555C67.9631 5.38047 67.5282 5.7102 67.2446 6.12473C66.9801 6.5204 66.8478 6.9726 66.8478 7.48134C66.8478 8.06543 67.0461 8.57414 67.4432 9.00751C67.8591 9.44087 68.6246 9.78003 69.7399 10.025L73.5395 10.8728C75.3544 11.2685 76.6398 11.8714 77.396 12.6816C78.1522 13.4918 78.5302 14.5187 78.5302 15.7623C78.5302 16.9116 78.2184 17.9102 77.5946 18.7581C76.9708 19.606 76.1011 20.256 74.9858 20.7082C73.8893 21.1604 72.5944 21.3865 71.1011 21.3865C69.7777 21.3865 68.5869 21.217 67.5282 20.8778C66.4695 20.5386 65.5432 20.077 64.7493 19.4929C63.9553 18.9088 63.3033 18.2399 62.7927 17.4863L64.8912 15.3948C65.2881 16.0543 65.7891 16.6478 66.3941 17.1754C66.999 17.6841 67.6983 18.0798 68.4923 18.3624C69.3051 18.645 70.2032 18.7864 71.1862 18.7864C72.0556 18.7864 72.8025 18.6827 73.4263 18.4755C74.069 18.2682 74.5509 17.9667 74.8723 17.5711C75.2125 17.1565 75.3829 16.6667 75.3829 16.1014C75.3829 15.555 75.1936 15.0745 74.8157 14.66C74.4566 14.2455 73.7758 13.9252 72.774 13.6991L68.6624 12.7664C67.5282 12.5215 66.5926 12.1729 65.8553 11.7207C65.1179 11.2685 64.5699 10.7221 64.2105 10.0815C63.8514 9.42204 63.6717 8.68721 63.6717 7.87701C63.6717 6.82186 63.9553 5.87037 64.5226 5.02248C65.1086 4.15577 65.9496 3.46804 67.0461 2.95932C68.1425 2.43175 69.447 2.16797 70.9592 2.16797Z"
            fill="white" />
        <path
            d="M56.2757 2.81799V16.8645C56.2757 17.5616 56.4551 18.0704 56.8145 18.3907C57.1924 18.711 57.6935 18.8711 58.3173 18.8711C58.8276 18.8711 59.2718 18.7958 59.65 18.645C60.028 18.4755 60.3778 18.2494 60.6991 17.9667L61.3796 20.1712C60.945 20.5481 60.4062 20.8495 59.7632 21.0756C59.1397 21.2829 58.4401 21.3865 57.665 21.3865C56.8522 21.3865 56.1056 21.2546 55.4249 20.9908C54.7444 20.727 54.2152 20.3031 53.837 19.719C53.459 19.1161 53.2605 18.3341 53.2416 17.3732V3.66586L56.2757 2.81799ZM61.1528 6.97259V9.34666H50.5195V6.97259H61.1528Z"
            fill="white" />
        <path
            d="M45.8854 4.59851C45.2235 4.59851 44.7132 4.43836 44.3541 4.11806C44.0139 3.7789 43.8438 3.30786 43.8438 2.70493C43.8438 2.10199 44.0139 1.64037 44.3541 1.32006C44.7132 0.999753 45.2235 0.8396 45.8854 0.8396C46.5281 0.8396 47.0195 0.999753 47.3597 1.32006C47.7188 1.64037 47.8985 2.10199 47.8985 2.70493C47.8985 3.30786 47.7188 3.7789 47.3597 4.11806C47.0195 4.43836 46.5281 4.59851 45.8854 4.59851ZM47.3882 6.97257V21.1039H44.3541V6.97257H47.3882Z"
            fill="white" />
        <path
            d="M26.0059 21.1038V2.45056H33.3784C35.6278 2.45056 37.2726 2.90276 38.3121 3.80718C39.352 4.71155 39.8719 5.96455 39.8719 7.56609C39.8719 8.54587 39.5883 9.42201 39.021 10.1945C38.4541 10.9482 37.6221 11.4286 36.5257 11.6359V11.6642C37.7356 11.8526 38.6715 12.3519 39.3331 13.1621C40.0135 13.9534 40.3538 14.8767 40.3538 15.9318C40.3538 17.5334 39.7679 18.7958 38.5958 19.719C37.4239 20.6422 35.7225 21.1038 33.4919 21.1038H26.0059ZM28.9831 18.5885H33.6335C34.8246 18.5885 35.7129 18.3436 36.299 17.8537C36.9039 17.3638 37.2064 16.676 37.2064 15.7905C37.2064 14.9049 36.9039 14.2172 36.299 13.7273C35.7129 13.2374 34.8246 12.9925 33.6335 12.9925H28.9831V18.5885ZM28.9831 10.4771H33.1514C35.5335 10.4771 36.7243 9.56332 36.7243 7.73567C36.7243 5.90802 35.5335 4.99418 33.1514 4.99418H28.9831V10.4771Z"
            fill="white" />
    </g>
    <defs>
        <clipPath id="clip0_833_1345">
            <rect width="158" height="20.7729" fill="white" transform="translate(0 0.613525)" />
        </clipPath>
    </defs>
</svg>